<mxfile host="app.diagrams.net" agent="Mozilla/5.0 (Windows NT 10.0; Win64; x64) AppleWebKit/537.36 (KHTML, like Gecko) Chrome/129.0.0.0 Safari/537.36" version="24.7.17">
  <diagram name="Page-1" id="c4acf3e9-155e-7222-9cf6-157b1a14988f">
    <mxGraphModel dx="1403" dy="1762" grid="1" gridSize="10" guides="1" tooltips="1" connect="1" arrows="1" fold="1" page="1" pageScale="1" pageWidth="850" pageHeight="1100" background="none" math="0" shadow="0">
      <root>
        <mxCell id="0" />
        <mxCell id="1" parent="0" />
        <mxCell id="OJ8fWZAq_-_0cFdH9Q6A-1" value="main" style="rounded=0;whiteSpace=wrap;html=1;" parent="1" vertex="1">
          <mxGeometry x="230" y="190" width="430" height="180" as="geometry" />
        </mxCell>
        <mxCell id="OJ8fWZAq_-_0cFdH9Q6A-2" value="&lt;p style=&quot;margin:0px;margin-top:4px;text-align:center;text-decoration:underline;&quot;&gt;&lt;b&gt;gui&lt;/b&gt;&lt;/p&gt;&lt;hr size=&quot;1&quot; style=&quot;border-style:solid;&quot;&gt;&lt;p style=&quot;margin:0px;margin-left:8px;&quot;&gt;screenX = width of screen&lt;/p&gt;&lt;p style=&quot;margin:0px;margin-left:8px;&quot;&gt;screenY = height of screen&lt;/p&gt;&lt;p style=&quot;margin:0px;margin-left:8px;&quot;&gt;screen = fullsized screen&lt;/p&gt;&lt;p style=&quot;margin:0px;margin-left:8px;&quot;&gt;black = (0,0,0)&lt;/p&gt;&lt;p style=&quot;margin:0px;margin-left:8px;&quot;&gt;text_manager = TextManager(self.screen)&lt;/p&gt;&lt;p style=&quot;margin:0px;margin-left:8px;&quot;&gt;image_manager = ImageManager(self.screen)&lt;/p&gt;" style="verticalAlign=top;align=left;overflow=fill;html=1;whiteSpace=wrap;" parent="1" vertex="1">
          <mxGeometry x="300" y="420" width="290" height="120" as="geometry" />
        </mxCell>
        <mxCell id="OJ8fWZAq_-_0cFdH9Q6A-3" value="&lt;p style=&quot;margin:0px;margin-top:4px;text-align:center;text-decoration:underline;&quot;&gt;&lt;b&gt;image_manager&lt;/b&gt;&lt;/p&gt;&lt;hr size=&quot;1&quot; style=&quot;border-style:solid;&quot;&gt;&lt;p style=&quot;margin:0px;margin-left:8px;&quot;&gt;image_array = [background image]&lt;/p&gt;&lt;p style=&quot;margin:0px;margin-left:8px;&quot;&gt;image = background image&lt;/p&gt;&lt;p style=&quot;margin:0px;margin-left:8px;&quot;&gt;assets_path = path to image&lt;/p&gt;&lt;p style=&quot;margin:0px;margin-left:8px;&quot;&gt;&lt;br&gt;&lt;/p&gt;&lt;p style=&quot;margin:0px;margin-left:8px;&quot;&gt;&lt;br&gt;&lt;/p&gt;" style="verticalAlign=top;align=left;overflow=fill;html=1;whiteSpace=wrap;" parent="1" vertex="1">
          <mxGeometry x="170" y="630" width="260" height="90" as="geometry" />
        </mxCell>
        <mxCell id="OJ8fWZAq_-_0cFdH9Q6A-4" value="&lt;p style=&quot;margin:0px;margin-top:4px;text-align:center;text-decoration:underline;&quot;&gt;&lt;b&gt;text_manager&lt;/b&gt;&lt;/p&gt;&lt;hr size=&quot;1&quot; style=&quot;border-style:solid;&quot;&gt;&lt;p style=&quot;margin:0px;margin-left:8px;&quot;&gt;font = pygame.font.Sysfont(&#39;Arial&#39;,25)&lt;/p&gt;&lt;p style=&quot;margin:0px;margin-left:8px;&quot;&gt;screen = fullsized screen&lt;/p&gt;&lt;p style=&quot;margin:0px;margin-left:8px;&quot;&gt;&lt;br&gt;&lt;/p&gt;" style="verticalAlign=top;align=left;overflow=fill;html=1;whiteSpace=wrap;" parent="1" vertex="1">
          <mxGeometry x="480" y="620" width="220" height="90" as="geometry" />
        </mxCell>
        <mxCell id="OJ8fWZAq_-_0cFdH9Q6A-5" value="&lt;p style=&quot;margin:0px;margin-top:4px;text-align:center;text-decoration:underline;&quot;&gt;&lt;b&gt;config&lt;/b&gt;&lt;/p&gt;&lt;hr size=&quot;1&quot; style=&quot;border-style:solid;&quot;&gt;&lt;p style=&quot;margin:0px;margin-left:8px;&quot;&gt;SCREEN_X = 1300&lt;/p&gt;&lt;p style=&quot;margin:0px;margin-left:8px;&quot;&gt;SCREEN_Y = 700&lt;/p&gt;&lt;p style=&quot;margin:0px;margin-left:8px;&quot;&gt;BLOCK_SIZE = 30&lt;/p&gt;&lt;p style=&quot;margin:0px;margin-left:8px;&quot;&gt;SMALLER_BLOCK_SIZE = 10&lt;/p&gt;&lt;p style=&quot;margin:0px;margin-left:8px;&quot;&gt;CAPTION = &quot;Battleship&quot;&lt;/p&gt;&lt;p style=&quot;margin:0px;margin-left:8px;&quot;&gt;WHITE = (255,255,255)&lt;/p&gt;&lt;p style=&quot;margin:0px;margin-left:8px;&quot;&gt;LINE_THICKNESS = 30&lt;/p&gt;&lt;p style=&quot;margin:0px;margin-left:8px;&quot;&gt;GREEN = (0,255,0)&lt;/p&gt;&lt;p style=&quot;margin:0px;margin-left:8px;&quot;&gt;CUSTOM_BUTTON_X =&amp;nbsp; 650&lt;/p&gt;&lt;p style=&quot;margin:0px;margin-left:8px;&quot;&gt;CUSTOM_BUTTON_Y = 500&lt;/p&gt;&lt;p style=&quot;margin:0px;margin-left:8px;&quot;&gt;CUSTOM_BUTTOM_WIDTH = 50&lt;/p&gt;&lt;p style=&quot;margin:0px;margin-left:8px;&quot;&gt;CUSTOM_BUTTON_HEIGHT = 200&lt;/p&gt;&lt;p style=&quot;margin:0px;margin-left:8px;&quot;&gt;&lt;br&gt;&lt;/p&gt;&lt;p style=&quot;margin:0px;margin-left:8px;&quot;&gt;&lt;span style=&quot;background-color: rgb(43, 43, 43); color: rgb(169, 183, 198); font-family: &amp;quot;JetBrains Mono&amp;quot;, monospace; font-size: 9.8pt;&quot;&gt;&lt;br&gt;&lt;/span&gt;&lt;/p&gt;&lt;p style=&quot;margin:0px;margin-left:8px;&quot;&gt;&lt;br&gt;&lt;/p&gt;" style="verticalAlign=top;align=left;overflow=fill;html=1;whiteSpace=wrap;" parent="1" vertex="1">
          <mxGeometry x="447.5" y="-100" width="285" height="210" as="geometry" />
        </mxCell>
        <mxCell id="OJ8fWZAq_-_0cFdH9Q6A-6" value="This diagram displays all objects that have static values throughout the entire game.&amp;nbsp;" style="shape=note2;boundedLbl=1;whiteSpace=wrap;html=1;size=25;verticalAlign=top;align=center;" parent="1" vertex="1">
          <mxGeometry x="138" y="-240" width="575" height="80" as="geometry" />
        </mxCell>
        <mxCell id="OJ8fWZAq_-_0cFdH9Q6A-7" value="" style="endArrow=classic;html=1;rounded=0;exitX=0.5;exitY=0;exitDx=0;exitDy=0;entryX=0.5;entryY=1;entryDx=0;entryDy=0;" parent="1" source="OJ8fWZAq_-_0cFdH9Q6A-1" target="OJ8fWZAq_-_0cFdH9Q6A-5" edge="1">
          <mxGeometry width="50" height="50" relative="1" as="geometry">
            <mxPoint x="370" y="220" as="sourcePoint" />
            <mxPoint x="420" y="170" as="targetPoint" />
          </mxGeometry>
        </mxCell>
        <mxCell id="OJ8fWZAq_-_0cFdH9Q6A-8" value="" style="endArrow=classic;html=1;rounded=0;entryX=0.5;entryY=0;entryDx=0;entryDy=0;exitX=0.5;exitY=1;exitDx=0;exitDy=0;" parent="1" source="OJ8fWZAq_-_0cFdH9Q6A-1" target="OJ8fWZAq_-_0cFdH9Q6A-2" edge="1">
          <mxGeometry width="50" height="50" relative="1" as="geometry">
            <mxPoint x="240" y="330" as="sourcePoint" />
            <mxPoint x="290" y="280" as="targetPoint" />
          </mxGeometry>
        </mxCell>
        <mxCell id="OJ8fWZAq_-_0cFdH9Q6A-9" value="" style="endArrow=classic;html=1;rounded=0;exitX=0.5;exitY=0;exitDx=0;exitDy=0;entryX=0;entryY=1;entryDx=0;entryDy=0;" parent="1" source="OJ8fWZAq_-_0cFdH9Q6A-3" target="OJ8fWZAq_-_0cFdH9Q6A-2" edge="1">
          <mxGeometry width="50" height="50" relative="1" as="geometry">
            <mxPoint x="160" y="540" as="sourcePoint" />
            <mxPoint x="210" y="490" as="targetPoint" />
          </mxGeometry>
        </mxCell>
        <mxCell id="OJ8fWZAq_-_0cFdH9Q6A-10" value="" style="endArrow=classic;html=1;rounded=0;entryX=1;entryY=1;entryDx=0;entryDy=0;exitX=0.5;exitY=0;exitDx=0;exitDy=0;" parent="1" source="OJ8fWZAq_-_0cFdH9Q6A-4" target="OJ8fWZAq_-_0cFdH9Q6A-2" edge="1">
          <mxGeometry width="50" height="50" relative="1" as="geometry">
            <mxPoint x="540" y="560" as="sourcePoint" />
            <mxPoint x="590" y="510" as="targetPoint" />
          </mxGeometry>
        </mxCell>
        <mxCell id="HMLYxZp-qX5sJ4b0Pe4H-3" value="&lt;p style=&quot;margin:0px;margin-top:4px;text-align:center;text-decoration:underline;&quot;&gt;&lt;b&gt;grid_manager&lt;/b&gt;&lt;/p&gt;&lt;hr size=&quot;1&quot; style=&quot;border-style:solid;&quot;&gt;&lt;p style=&quot;margin:0px;margin-left:8px;&quot;&gt;grid1 = main.grid1&lt;/p&gt;&lt;p style=&quot;margin:0px;margin-left:8px;&quot;&gt;grid2 = main.grid2&lt;/p&gt;&lt;p style=&quot;margin:0px;margin-left:8px;&quot;&gt;block_size = 30&lt;/p&gt;&lt;p style=&quot;margin:0px;margin-left:8px;&quot;&gt;smallergrid1 = main.smallergrid1&lt;/p&gt;&lt;p style=&quot;margin:0px;margin-left:8px;&quot;&gt;smallergrid2 = main.smallergrid2&lt;/p&gt;&lt;p style=&quot;margin:0px;margin-left:8px;&quot;&gt;gridleft1 = 250&lt;/p&gt;&lt;p style=&quot;margin:0px;margin-left:8px;&quot;&gt;gridtop1 = 100&lt;/p&gt;&lt;p style=&quot;margin:0px;margin-left:8px;&quot;&gt;gridleft2 = 750&lt;/p&gt;&lt;p style=&quot;margin:0px;margin-left:8px;&quot;&gt;gridtop2 = 100&lt;/p&gt;&lt;p style=&quot;margin:0px;margin-left:8px;&quot;&gt;&lt;br&gt;&lt;/p&gt;" style="verticalAlign=top;align=left;overflow=fill;html=1;whiteSpace=wrap;" parent="1" vertex="1">
          <mxGeometry x="60" y="-60" width="200" height="170" as="geometry" />
        </mxCell>
        <mxCell id="HMLYxZp-qX5sJ4b0Pe4H-4" value="" style="endArrow=classic;html=1;rounded=0;exitX=0.014;exitY=-0.015;exitDx=0;exitDy=0;exitPerimeter=0;entryX=0.5;entryY=1;entryDx=0;entryDy=0;" parent="1" source="OJ8fWZAq_-_0cFdH9Q6A-1" target="HMLYxZp-qX5sJ4b0Pe4H-3" edge="1">
          <mxGeometry width="50" height="50" relative="1" as="geometry">
            <mxPoint x="180" y="160" as="sourcePoint" />
            <mxPoint x="230" y="110" as="targetPoint" />
          </mxGeometry>
        </mxCell>
      </root>
    </mxGraphModel>
  </diagram>
</mxfile>
